/* XPM */
static char *_36b35e9bca641b1fad96028c9131beeIu6KpeZg6QwLSRNQ[] = {
/* columns rows colors chars-per-pixel */
"64 64 98 2 ",
"   c #363636",
".  c #3D3D3D",
"X  c #3F3F40",
"o  c #403F40",
"O  c #3F4244",
"+  c #434343",
"@  c #474847",
"#  c #424649",
"$  c #454A4D",
"%  c #444D52",
"&  c #494E51",
"*  c #465156",
"=  c #4C5154",
"-  c #46545B",
";  c #48555B",
":  c #445760",
">  c #445B64",
",  c #476163",
"<  c #4A6563",
"1  c #4C6A63",
"2  c #4D6768",
"3  c #4F6A69",
"4  c #506B67",
"5  c #506A69",
"6  c #4E7163",
"7  c #547564",
"8  c #567B65",
"9  c #587B67",
"0  c #56726B",
"q  c #5A766D",
"w  c #5D7A6F",
"e  c #617F6F",
"r  c #68995E",
"t  c #70AD5F",
"y  c #77BC57",
"u  c #76B85A",
"i  c #78BB5A",
"p  c #578064",
"a  c #5A8362",
"s  c #5E8E62",
"d  c #5F836C",
"f  c #5F9161",
"g  c #608F62",
"h  c #60806F",
"j  c #629663",
"k  c #669B61",
"l  c #648472",
"z  c #698A74",
"x  c #6E9077",
"c  c #729678",
"v  c #769B79",
"b  c #789E7B",
"n  c #67A163",
"m  c #6AA463",
"M  c #6DAB62",
"N  c #70AD61",
"B  c #6FB061",
"V  c #73B562",
"C  c #75B960",
"Z  c #78BD64",
"A  c #7CA27C",
"S  c #7AC45D",
"D  c #7FD05F",
"F  c #79C162",
"G  c #7CC563",
"H  c #7CC663",
"J  c #7BC564",
"K  c #7EC765",
"L  c #7CC962",
"P  c #7FCF63",
"I  c #7FD060",
"U  c #80A77E",
"Y  c #8AB97F",
"T  c #80CF5F",
"R  c #80D05F",
"E  c #80CF61",
"W  c #80CD64",
"Q  c #83CC68",
"!  c #80D061",
"~  c #85D267",
"^  c #83AC81",
"/  c #87B080",
"(  c #8DB784",
")  c #90BA85",
"_  c #95C685",
"`  c #95C188",
"'  c #9BC88B",
"]  c #9CCA8B",
"[  c #9FCF8B",
"{  c #A1CF8E",
"}  c #A1D08E",
"|  c #A3D38E",
" . c #A7DC8D",
".. c #A6D791",
"X. c #A9DB90",
"o. c #ABDF91",
"O. c #ACDF92",
"+. c #ACDF93",
/* pixels */
"@ + + @ + + . + o . + + + @ + o + @ o . + + + . + + @ + + + . + + + + + . + + + @ . + @ + + + + + @ . + @ + . @ @ . + + + @ + + ",
"+ + @ @ + @ . + + + + + @ + + + + . @ + + @ . + . . . . + + + + + o + + + + + . . . + @ @ @ . + . + @ + + + + + + + + @ . + . + ",
"+ @ @ @ + @ . + + @ . @ @ + @ + @ + + + + + + . + . + + . + . . . + + + @ @ @ + . . + + + + + + + + o @ + . + . . + + + + @ + . ",
"@ . + @ + + @ . @ . + o @ @ + + . + + + + + . + . @ @ . . . + + @ + @ + . + . . + @ + + + + @ + . + @ + + o + . + @ @ + + + @ + ",
"+ @ @ . . + @ + @ + + + + + + + . + + @ . + + . . . . + + @ + + + @ + + @ + @ + + @ + + . @ @ + + . + + + . . + + + + + + + + . ",
". @ + @ o + . + + @ . @ @ + @ @ + + + . @ + . @ @ + + + @ @ . @ @ @ @ + @ + @ @ . . . . . . + @ + + @ + + + @ @ @ + + + . + @ + ",
". . @ @ + + + . . . + + @ @ @ . . + @ @ . . + + + + @ . . . + @ + + + @ + + + . + + o . . + + + + + + @ @ . + @ + @ + + + + + + ",
". . + @ + + . + + @ @ + . + + . @ @ @ @ . . . o @ @ + + + + . . + . + @ @ + o . . . . . . . + @ + + @ @ + + + @ + + + + + + + + ",
"+ + . o + @ . + @ + @ @ @ + + . . + o @ . @ + @ . + + + + @ @ + @   . + + + + . @ + @ @ @ + @ + + . + @ + + + + + + + + + + + + ",
". . + + . . + @ + @ + @ + + @ @ + + . . . @ @ @ + @ @ @ + @ o + + @ + + @ + @ @ + . + . + @ . + @ + + @ + @ + @ + + + @ . + @ + ",
"+ @ + + + @ @ + + . . o + . + . + + + + + . . . + @ + @ + + + + + + @ + + @ + . + . + . . @ + + @ @ @ + @ @ + + + . . . . . + + ",
"+ . @ + @ @ @ + + @ + @ @ + . @ + + + @ @ + @ + + . + + o . @ @ + + @ @ . . + . . + . @ @ @ @ @ @ + @ + + . @ + + . @ @ @ + @ + ",
"+ + . . . + + + @ @ + + + . @ + @ + @ @ X + @ @ @ @ @ @ + . + @ . @ @ @ + @ . @ @ . + . + + @ @ + + @ @ + . + . + . . . + + . @ ",
"@ & $ & # @ $ $ $ $ $ # & $ & $ $ # & $ & $ $ $ & $ $ $ $ @ $ $ $ $ # $ O & # & & & & $ $ # $ & $ $ $ $ & $ $ # @ + @ @ @ + . + ",
": > > > > > > > > > > > > > > > > > > > > > > > > > > > > > > > > > > > > > > > > > > > > > > > > > > > > > > > : $ @ @ @ + @ + ",
"> > 7 7 7 7 7 7 7 7 7 7 7 7 7 7 7 7 7 7 7 7 7 7 7 7 7 7 7 7 7 7 7 7 7 7 7 7 7 7 7 7 7 7 7 7 7 7 7 7 7 7 7 7 7 < > & + + + + . + ",
"> > u y i i i i i i i i i i i i i i i i i i i i i i i i i i i i i i i i i i i i i i i i i i i i i i i i i i i 7 > & @ @ + @ + @ ",
"> > u r < < < < < < < < < < < < < < < < < < < < < < < < < < < < < < < < < < < < < < < < < < < < < < < < < < < > > : : : $ @ + @ ",
"> > u a > > > : : > > > > > > > > > > > > > > > > > > > > > > > > > > > : > > > > > > > > > > > > > > > > > : > > > : > * o . + ",
"> > u a > j C C C C C C C C C C C C C C C C C C C C C C C C C C C C C C u C C C C C C C C C C C C C C C C C C C C C j > ; + @ @ ",
"> > u a > k S k s g s s s s s s s s s s g s s s s g s s s s s s s s s s s s g s s s s g g s s s s g s s s g s s g g 8 > : * * $ ",
"> > u a > k N > > > > > > > > > > > > > > > > > > > > > > > > > > > > > > > > > > > > > > > > > > > > > > > > > > > > > > > > : ",
"> > u a > k N > 1 j j j j j j j j j j j j j j j j j j j j j j j j j j j j j j j j j j j j j j j j j j j j j j j j j j j j j > > ",
"> > u a > k N > 7 ! ! ! I L F F F F F F F F F F F L E ! ! ! ! I E P G F G P I E E ! ! I E G F F F F F F F F F F F P E ! ! L > > ",
"> > u a > k N > 7 ! ! I L 1 > : : > > > : : : : : < Q ~ ~ ~ K k 8 , > : > < p m W ~ ~ ~ Z > : : : : : : > : : > > 8 D ! ! L > > ",
"> > u a > k N > 7 ! E T V > > 3 5 5 5 5 5 5 5 5 5 e o.o.X.b < > > > < 1 , > > > 4 / o.+.[ 0 5 5 5 5 5 5 5 5 5 3 > , L I ! L > > ",
"> > u a > k N > 7 I F n 1 > c +.+.+.+.+.+.+.+.+.+.+.+.} q > > 8 M J P P W F k 6 > > z X.+.+.+.+.+.+.+.+.+.+.+.+.w > 8 m L L > > ",
"> > u a > k N > 7 P 7 > > q ..+.+.+.+.+.+.+.+.+.+.+.} 4 > 1 V E E I M 7 Z ! ! P n , > h X.+.+.+.+.+.+.+.+.+.+.+.' 3 > > s L > > ",
"> > u a > k N > 7 E 1 > A X.+.+.+.+.+.+.+.+.+.+.+.X.q > 7 G ! E I E a > n ! ! I I C < > x +.+.+.+.+.+.+.+.+.+.+.+.} z > a P > > ",
"> > u a > k N > 7 E 1 > ' +.+.+.+.+.+.+.+.+.+.+.+.b > 1 G ! ! I Z 8 > > , s L ! ! E V > > ) o.+.+.+.+.+.+.+.+.+.+.+.^ > a L > > ",
"> > u a > k N > 7 E 1 > ' +.+.+.+.+.+.+.+.+.+.+.} < > V E ! ! J < > > > > > 8 P ! E I j > q o.+.+.+.+.+.+.+.+.+.+.+.^ > a P > > ",
"> > u a > k N > 7 E 1 > ' +.+.+.+.+.+.+.+.+.+.+.A > 8 E R ! I f > 7 8 > j 1 > M E ! ! L < > ` +.+.+.+.+.+.+.+.+.+.+.^ > a L > > ",
"> > u a > k N > 7 E 1 > ' +.+.+.+.+.+.+.+.+.+.+.w > M ! I ! I 8 > M a > n j > j E ! ! I s > v +.+.+.+.+.+.+.+.+.+.+.^ > a P > > ",
"> > u a > k N > 7 E 1 > ' +.+.+.+.+.+.+.+.+.+.X.< > J ! ! ! I a > j a > n F s F E ! ! I M > w +.+.+.+.+.+.+.+.+.+.+.^ > a P > > ",
"> > u a > k N > 7 E 1 > ' +.+.+.+.+.+.+.+.+.+.} > < E ! ! ! ! B > : > > s G ! E ! ! ! ! Z > 4 +.+.+.+.+.+.+.+.+.+.+.^ > a P > > ",
"> > u a > k N > 7 E 1 > ' +.+.+.+.+.+.+.+.+.+.[ : 1 E ! ! ! ! I m 1 > > > , n P ! ! ! I F > 3 +.+.+.+.+.+.+.+.+.+.+.^ > a P > > ",
"> > u a > k N > 7 E 1 > ' +.+.+.+.+.+.+.+.+.+.} > , W ! ! ! ! I R P p > 1 > > C E ! ! I C > 0 +.+.+.+.+.+.+.+.+.+.+.^ > a L > > ",
"> > u a > k N > 7 E 1 > ' +.+.+.+.+.+.+.+.+.+.o.2 > F ! ! ! ! k 7 G a > n a > k E ! ! I m > l +.+.+.+.+.+.+.+.+.+.+.^ > a L > > ",
"> > u a > k N > 7 E 1 > ' +.+.+.+.+.+.+.+.+.+.+.l > k ! ! ! I 8 > M a > n s > j E ! ! I a > A +.+.+.+.+.+.+.+.+.+.+.^ > a L > > ",
"> > u a > k N > 7 E 1 > ' +.+.+.+.+.+.+.+.+.+.+./ > 6 P I ! I k > 1 7 > p > > V I ! ! G , > ] +.+.+.+.+.+.+.+.+.+.+.^ > a L > > ",
"> > u a > k N > 7 E 1 > ] +.+.+.+.+.+.+.+.+.+.+.X.5 > n I ! I L 7 > > > > > s E E ! ! a > l +.+.+.+.+.+.+.+.+.+.+.+.^ > a L > > ",
"> > s 1 > k N > 7 E 1 > ' +.+.+.+.+.+.+.+.+.+.+.+./ > , C E R ! L j < > 1 m P ! ! E m > < ] +.+.+.+.+.+.+.+.+.+.+.+.^ > a L > > ",
": > > > > k N > 7 E 1 > z { +.+.+.+.+.+.+.+.+.+.+.+.z > < V P ! I ! s > m I I ! ! m > > U +.+.+.+.+.+.+.+.+.+.+.+.` w > a P > > ",
"$ % % - > k t > 7 E 8 > > 2 [ +.+.+.+.+.+.+.+.+.+.+.X.h > > j L I I C s G I I G a > : v o.+.+.+.+.+.+.+.+.+.+.+.( > > > j L > > ",
". @ + ; > j m > 7 I P C 8 > l } { { { { { { { { {  .+.X.x > > < s M Z F C m a , > , U +.+.} { { { { { { { { { { 4 > s Z P L > > ",
"@ @ + - > > > > 7 ! ! ! Z > > > > > > > > > > > > 3  . . .Y 7 > > > : : > > > > d _  . ._ > > > > > > > > > > > > < E ! ! L > > ",
"@ + @ % : : : > 7 E ! ! P 8 1 1 1 1 1 1 1 1 1 1 1 8 E E E E E V j 8 1 1 1 8 k Z I ! E ! F 6 1 1 1 1 1 1 1 1 1 1 1 j P ! ! L > > ",
"@ @ + + + @ $ > 7 I E E E E E E E E E E E E E E E E I E E E E E I E E E E I E E E E E E E E E E E E E E E E E E E E E E E L > > ",
"+ . . . @ . @ > < 9 8 8 8 8 8 8 8 8 8 8 8 8 8 8 8 8 8 8 8 8 8 8 8 8 8 8 8 8 8 8 8 8 8 8 8 8 8 8 8 8 8 8 8 8 8 8 8 8 8 8 8 8 > > ",
"@ + o + . . # > > > > > > > > > > > > > > > > > > > > > > > > > > > > > > > > > > > > > > > > > > > > > > > > > > > > > > > > : ",
"+ + . @ . + @ $ $ $ $ @ $ $ $ & = & & & $ $ & & # & $ $ $ $ # # # # # # # & $ # # & $ $ # & # $ $ @ & % $ $ # # $ $ $ $ $ # O + ",
"+ + + @ @ + @ + + + . + + @ + @ @ . . O + + + @ @ @ + . @ + + @ @ . @ @ @ + + + + + o . + + + + @ . . . . @ + + @ @ + + + @ + + ",
"@ + + . + + + + + + @ . . + . . . @ . @ @ + @ + @ @ @ + @ + @ @ .     + . + + + + + @ + + + + . + + + @ + . + . + + @ + + @ + @ ",
". . . . . + @ + . + @ + + + + @ + @ . @ . . + + @ + . + @ . + + . + + .   .   . . . . @ . @ + + + + . @ . + @ + @ @ + . o . . . ",
"@ @ @ + + . + . + + @ @ + @ . . . . X   + @ @ @ + + . + + + . + + @ + + + + @ @ @ . . . . + + + @ @ . . . + @ @ + + + @ @ + . . ",
"@ @ @ + @ @ + + @ @ . + .       .   . @ . + + @ + + + + . @ + + + + + @ + @ @ + + + @ + . . . . . . + . . + @ @ + . + + + @ @ + ",
"@ + + . + + @ o + . . . . @ @ @ @ @ @ + + . + + + + . + @ + + @ . + + . + + + @ + + + + + + + + @ + @ @ @ + . . + + @ @ @ @ @ . ",
"@ + + + + . @ + @ . + . + + @ + @ . + + @ @ @ @ @ . + + @ + + . + + . + + + . . @ + + o @ + + . + @ @ . + @ + + + . o . . . . + ",
". . . + + + o . + + @ + @ @ @ + + @ + + + + + o + o + + + . . . . . . + + . + + + + @ + + . + . + @ @ @ + + + @ . + . + + + @ + ",
"+ @ + . o @ @ + . . . + + + @ + . . . @ + + . o + @ + . . + + . . . o . + @ @ + + + . + + . . + . + + + + @ + + . + @ + + + + + ",
"+ + + @ + + + @ . . + + + + + o + . + @ + @ + + + . + + + o . . . @ + + o + . . + @ + . . @ + + + . . . + . + + + + @ . + o + + ",
"@ . + + + @ @ + + + . + + + + . + . . + @ + @ @ + + + + + + . @ + . . + . + + + + + @ + . @ + @ @ @ + + . . . . . + . + + . . + ",
"+ . + . + + . + + + + + + + . . . + + + + + + @ @ @ + + @ @ + + @ + + . + + . . + + . + + @ + @ @ o + + . @ @ + . @ + . . + . + ",
"+ + @ + @ . @ + @ @ + @ . @ . . . . . o @ . + + @ . . + @ + + + + @ + . + . . @ @ . + @ . @ + + @ @ + + . + @ + . @ @ @ @ + . + "
};
