/* XPM */
static char *_c5a8fbb7caa4b2fe4962c3b048f7d6d4HHsuP8EYkXG0D9g[] = {
/* columns rows colors chars-per-pixel */
"64 64 125 2 ",
"   c #363636",
".  c #3E3E3E",
"X  c #4B3C37",
"o  c #433F3E",
"O  c #4B3E3A",
"+  c #543D35",
"@  c #5B3F37",
"#  c #623F36",
"$  c #3F403F",
"%  c #40403F",
"&  c #4B423E",
"*  c #5A4037",
"=  c #53423D",
"-  c #5E443D",
";  c #7F412F",
":  c #644137",
">  c #684135",
",  c #6E463B",
"<  c #63483F",
"1  c #734436",
"2  c #7E4434",
"3  c #7F4837",
"4  c #754538",
"5  c #7A483A",
"6  c #3F3F40",
"7  c #403F40",
"8  c #3F4040",
"9  c #434343",
"0  c #4A4442",
"q  c #4F4846",
"w  c #484748",
"e  c #494949",
"r  c #524542",
"t  c #525151",
"y  c #595959",
"u  c #6C554E",
"i  c #6F5953",
"p  c #626262",
"a  c #6D6D6D",
"s  c #746A69",
"d  c #833E29",
"f  c #87412E",
"g  c #8D432F",
"h  c #94462F",
"j  c #99442A",
"k  c #824736",
"l  c #8E4633",
"z  c #804837",
"x  c #844738",
"c  c #844A38",
"v  c #914731",
"b  c #9A4630",
"n  c #924933",
"m  c #9A4A32",
"M  c #A34125",
"N  c #A64429",
"B  c #A8452A",
"V  c #A9482F",
"C  c #B64525",
"Z  c #B84727",
"A  c #B14827",
"S  c #B84925",
"D  c #B54528",
"F  c #B74C2B",
"G  c #BA4929",
"H  c #ED471C",
"J  c #E74A1F",
"K  c #ED481B",
"L  c #FF4E17",
"P  c #F34B1A",
"I  c #FF4E18",
"U  c #FC511C",
"Y  c #C34724",
"T  c #C44825",
"R  c #CB4A25",
"E  c #C54828",
"W  c #C94B28",
"Q  c #D34922",
"!  c #DD4920",
"~  c #E54B20",
"^  c #EF592E",
"/  c #FB5724",
"(  c #F0592C",
")  c #FA5B2A",
"_  c #FB602F",
"`  c #FB6739",
"'  c #8C7269",
"]  c #FA7146",
"[  c #FB754A",
"{  c #FB7C54",
"}  c #F97F5A",
"|  c #EA805F",
" . c #F98059",
".. c #E98363",
"X. c #F98560",
"o. c #F99170",
"O. c #F99E7F",
"+. c #959292",
"@. c #999694",
"#. c #9C9897",
"$. c #A3A09E",
"%. c #A6A5A5",
"&. c #AAAAA9",
"*. c #F9A387",
"=. c #F9A68C",
"-. c #F8B29C",
";. c #F8CBBC",
":. c #CCCBCA",
">. c #DAD5D4",
",. c #F9D2C7",
"<. c #E1DDDD",
"1. c #F9DED5",
"2. c #F5E2DC",
"3. c #F9E3DC",
"4. c #F9EAE5",
"5. c #F9EDE9",
"6. c #F9EEEA",
"7. c #F8F2EF",
"8. c #F4F3F2",
"9. c #F6F6F6",
"0. c #F8F2F0",
"q. c #F8F6F6",
"w. c #F7F8F5",
"e. c #F7F7F8",
"r. c #F8F7F8",
/* pixels */
"w 9 9 w 9 9 . 9 . . 9 9 . 9 9 . 9 9 . . 9 9 9 . 9 9 w 9 9 9 9 9 9 9 9 9 . 9 8 9 9 . 9 e 9 9 9 9 w w . 9 9 w . w 9 . 9 9 9 w 9 9 ",
"9 9 w w 9 w . 9 9 9 9 9 w 9 9 9 9 . w 9 9 w 9 w 9 9 . . 9 9 9 . 9 . 9 9 w 9 9 . 9 $ w 9 w w 9 w . w w 9 9 9 9 9 9 9 9 9 . 9 . 9 ",
"9 w e w 9 9 . 9 $ 9 9 w w w w 9 w 9 9 9 9 9 9 . 9 . . 9 9 9 . . . 9 9 9 w w w 9 . . 9 9 9 9 $ 9 9 . 9 w 9 . $ $ $ 9 9 9 9 e w . ",
"w . 9 w 9 9 w . w . 9 9 w w 9 9 . 9 9 9 9 9 . 9 . w 9 $ . . 9 9 9 9 9 9 . 9 . 9 9 w 9 9 9 9 9 $ . 9 w 9 . $ 9 $ 9 w e 9 w 9 w 9 ",
"9 9 w . . 9 e 9 w 9 9 9 9 9 9 9 . . 9 w . 9 9 . . . . 9 9 9 w 9 9 w 9 w w 9 w 9 9 w 9 9 . w 9 9 $ 9 9 9 $ . . w 9 9 9 9 9 9 9 . ",
"9 w 9 9 9 9 9 9 . w . w e 9 9 w 9 . . . w w . e e 9 w 9 w e . w w e w 9 w 9 w e . . . . 9 . 9 w 9 9 w 9 9 9 w w w 9 9 9 . 9 w 9 ",
". $ w 9 9 9 w . . . . 9 w w w . . . w 9 . . 9 9 9 9 w . . . & m h 0 9 w 9 9 9 . $ 9 . . . 9 9 9 9 9 9 9 w . 9 w 9 w 9 9 9 9 9 9 ",
". $ 9 w . 9 . 9 w w 9 9 . 9 9 9 w w w e . . . . w w w 9 9 9 j I I j 9 w 9 9 % . . . . 9 . 9 9 w 9 9 9 w 9 9 w w 9 9 9 9 9 9 9 9 ",
"9 9 9 9 9 w . 9 e w w w w 9 9 . . 9 . w . 9 w w . 9 9 9 9 w Q I I Q . 9 9 9 9 . 9 9 w w w 9 w 9 9 . 9 w w 9 9 9 . $ 9 . 9 9 9 9 ",
". . 9 9 . . 9 w 9 9 9 w 9 9 9 e 9 9 . . . w w w 9 w e e 8 < P I I P * w w 9 w w w . . . 9 w . 9 w 9 9 9 9 w w 9 9 9 9 w . 9 9 w ",
"9 w w 9 9 9 w 9 9 . 9 $ . 9 9 $ 9 w 9 9 9 . . . 9 9 w w w n I I I I v 9 9 w 9 . 9 . 9 . . w 9 9 w w w 9 w w 9 9 9 9 . . . . 9 9 ",
"9 . w 9 9 9 w 9 9 w 9 9 w 9 $ w 9 9 9 w e 9 w 9 9 . 9 9 o R I I L I R w . . 9 . . $ . w w e e w w 9 w 9 w . w 9 w . 9 9 w 9 w 9 ",
"9 9 . . . 9 9 9 w w 9 9 9 . e 9 e 9 w w $ 9 e w w w e w r P I I I I P r . w . 9 w . 9 8 9 9 w w 9 9 9 w 9 . 9 . 9 . . . 9 9 . w ",
"9 w 9 w 9 9 9 9 w 9 9 $ w 9 w 9 9 . 9 9 w 9 9 9 w 9 w 9 2 I L I I I I k . e . w 9 w e w 9 9 9 9 9 . 9 9 w w 9 . 9 9 w 9 9 9 . 9 ",
"9 w 9 w 9 9 w w w 9 9 9 w w 9 9 9 . 9 . w . 9 9 . 9 w 9 G I I I I I L S % $ . w 9 9 9 9 . w w w . . 9 e w 9 . . w e w w 9 9 9 9 ",
"9 9 . 9 9 9 9 9 9 w 9 9 w 9 9 . 9 9 . w 9 9 9 9 $ w 9 w ..L I I I I I | w 9 9 w w . 9 9 w . w 9 . 9 . . 9 . 9 . w w 9 9 9 w . 9 ",
"9 9 9 $ 9 9 9 w w . w w . 9 . 9 9 . $ w 9 $ w 9 9 9 $ s 0.-.{ ` ` { -.7.a w . 9 9 9 9 9 . $ 9 w 9 9 $ w w 9 . 9 w w w e 9 w 9 9 ",
"w 9 9 . 9 w 9 9 w w . . e w 9 . . w 9 9 9 . w w w w w &.9.9.9.q.9.9.9.9.%.9 w 9 w w w . 9 . 9 9 9 . . 9 9 9 . 9 9 9 9 9 $ 9 9 w ",
"9 9 . . 9 9 $ 9 9 w w w . w 9 9 9 9 . w 9 9 w e e w 9 <.e.9.9.9.9.9.q.e.<.9 9 9 w 9 w . w . 9 . w . 9 w 9 9 9 9 9 9 w 9 . $ . . ",
"w w w 9 9 9 9 9 9 w . e 9 w 9 9 9 w w w w 9 w 9 9 9 p 9.9.9.9.9.9.9.9.9.9.p 9 w 9 w 9 w 9 . . $ . . . 9 w . 9 . . 9 . 9 9 9 w w ",
"w 9 9 9 e 9 9 9 9 9 9 . 9 w 9 w . 9 w 9 w . 9 w 9 w #.9.9.9.9.9.9.9.9.9.e.@.9 w 9 w w 9 w 9 w . 9 9 . . w w w 9 9 9 w . 9 9 w w ",
"9 w 9 9 9 w 9 . 9 w 9 9 9 . 9 . 9 . 9 8 9 9 . . 9 . :.9.9.9.9.9.9.9.9.9.9.:.. . 9 9 w 9 9 9 w w w 9 w . 9 9 w 9 w 9 9 9 9 e w 9 ",
". 9 w . 9 w 9 9 w 9 9 9 9 . . 9 9 9 w 9 9 9 9 9 9 = 2.9.9.9.9.9.9.9.9.9.e.2.= 9 . 9 . . 9 . . . . 9 9 w 9 9 . 9 w 9 . 9 9 9 9 9 ",
"9 9 9 9 w 9 9 . 9 9 . 9 w 9 w 9 9 9 9 9 w % 9 9 9 d  .4.9.9.9.9.9.9.9.9.4.} l 9 9 . w . w w w 9 w . . w w w . 8 9 9 9 . w 9 w . ",
". $ w 9 . 9 w 9 w w 9 9 w w . 9 9 w 9 . 9 . . . . Y I _ O.;.3.6.6.3.;.O._ I T w 9 . 9 9 9 9 9 9 9 $ 9 w w w 9 9 w 9 w 9 w 9 9 . ",
"9 . e 9 w . 9 w 9 . . w 9 9 w 9 9 9 9 9 9 9 9 . O P I I I I U / / U I L I I P O 9 9 9 9 9 9 w $ 9 . 9 9 w w 9 . w 9 9 9 . 9 9 9 ",
"w 9 . 9 w . 9 9 w w . w . 9 w 9 9 9 . . . . 9 9 2 I I I I I I I I L I I I I I 3 . . w 9 w 9 . . 9 9 . 9 . w . 9 . 9 w 9 9 . 9 w ",
"w e w . 9 w w 9 w 9 9 9 9 9 9 9 w . . . . 9 . 9 F L I I I I I I I I I I I I I A 9 9 9 9 w 9 9 . . 9 9 $ 9 w w w . . $ . 9 9 9 9 ",
"9 9 . 9 9 9 9 9 . . 9 . 9 . . 9 w 9 9 . e w w 0 J I I I I I I I I I I I L L L J 0 9 . . 9 9 9 9 . w . . . . . . 9 9 . 9 9 w 9 w ",
"e 9 9 9 w 9 9 9 9 9 w . w 9 w 9 w 9 . . . 9 w u U I I I I I I I I I I I L L L U i w w 9 w 9 9 . . 9 9 w 9 w 9 9 9 w w 9 9 w 9 9 ",
"w 9 w . . 9 w $ 9 9 9 9 w 9 9 9 w 9 9 w 9 w . $.X.I I L I I I I I I I I L L L X.%.w 9 w w 9 9 . . 9 9 w w 9 w 9 9 w 9 . w e 9 9 ",
"9 9 . 9 9 9 . 9 9 9 . 9 9 9 9 w . 9 w w w w 9 >.6.o.U I I I I I I I I I I U o.6.>.9 9 9 9 9 w w 9 w e w 9 9 . 9 w $ . w 9 w . 9 ",
"9 w . 9 9 9 w e 9 9 9 9 w 9 9 w 9 9 9 w w e y 9.9.e.1.*.[ ) U I I U ) [ *.1.q.9.9.y 9 e . 9 . 9 9 w 9 9 9 w 9 9 9 . 9 9 w 9 . . ",
". 9 . w 9 w w . . 9 . 9 w 9 $ . . 9 9 9 w e +.q.9.9.9.e.q.7.4.3.3.4.0.q.9.9.9.9.9.+.9 . . 9 9 9 9 w 9 9 . 9 . 9 w . w 9 9 w 9 9 ",
"8 9 9 9 . w 9 w 9 w w 9 9 9 $ 9 9 9 9 w w w :.9.9.9.9.9.9.r.w.9.9.9.9.9.q.q.9.9.9.:.9 9 9 w 9 w . . . 9 . 9 . 9 9   9 w . 9 9 9 ",
"9 9 9 9 9 w 9 9 9 9 . w 9 9 9 9 w 9 9 w $ q 8.9.9.9.9.9.q.9.9.9.9.9.9.9.9.9.9.9.9.9.t w . . . . 9 . w w 9 9 $ . . . . . . 9 9 w ",
". . 9 w 9 w 9 9 w w . 9 9 . 9 . 9 9 w 9 o ' q.q.9.9.9.9.9.9.9.9.9.9.9.9.9.9.9.9.9.9.' 9 w w w 9 . w w w 9 9 . w w 9 w . w w 9 9 ",
"9 w w w 9 w 9 9 9 w 9 9 9 9 w 9 w 9 % : Z ^ 6.e.9.9.9.9.9.9.9.9.9.9.9.9.9.9.9.9.9.6.( D : . $ . w 9 . . . 9 . w 9 9 w 9 9 w w w ",
"9 9 w w w 9 . 9 9 9 w 9 w 9 9 w w 1 Y K H P X.7.e.9.9.9.9.9.9.9.9.9.9.9.9.9.9.9.7.X.P K K Y 4 9 w w w w 9 $ w . . 9 . 9 . . . 9 ",
"9 w 9 w 9 9 9 w w 9 . 9 w 9 0 4 T K K K P I I ] ;.q.9.9.9.9.9.9.9.9.9.9.e.9.9.;.] I I K K K K T 1 0 9 9 w 9 9 w 9 w w w 9 w . . ",
"w 9 . 9 9 w w w w 9 9 9 0 ; Q K K K K K P I L I U ] =.,.6.q.q.9.9.q.q.6.,.=.] U I I I P K K K K K Q c 0 w 9 9 9 9 9 9 9 9 w 9 . ",
". . . 9 w 9 9 9 9 $ & v Q H K K K K K K P I I I I I I I / ` [ { { [ ` / I I I I I I I P K K K K K K K Q n r . 9 w w 9 9 9 9 9 9 ",
"w 9 $ 9 w 9 9 w & h ! K K K K K K K K K I I I I I I I I I I I I I I I I I I I I I I I I K K K K K K K K H ! g & % 9 9 9 . . 9 w ",
"9 . 8 9 . w 9 & W K K K K K K K K K K P I I I I I I I I I I I I I I I I I I I I I I I I P K K K K K K K K K K W o 7 9 9 w 9 e 9 ",
". w w 9 . 9 9 1 K K K K K K K K K K K P I I I I I I I I I I I I I I I I I I I I I I I I P K K K K K K K K K K K 5 9 e 9 9 9 . 9 ",
"w w 9 w 9 w 9 2 K K K K K K K K K K K K P I I I I I I I I I I I I I I I I I I I I I I P K K K K K K K K K K K K 2 w . . . . . 9 ",
"w 9 w 9 9 w w - J K K K K K K K K K K K K P I I I I I I I I I I I I I I I I I I I I P K K K K K K K K K K K K K @ . 9 w . w w w ",
"w w w 9 9 w w 9 z ! H K K K K K K K K K K K P P I I I I I I I I I I I I I I I I I P K K K K K K K K K K K K ! z e . 9 w w w 9 9 ",
"9 . . . w . 9 9 9 r f Q K K K K K K K K K K K K P P P I I I I I I I I I I P P P K K K K K K K K K K K K Q l 0 6 8 9 w 9 9 w 9 9 ",
"9 9 $ 9 9 . 9 w . . . q k R K K K K K K K K K K K K K K P P P P P P P P K K K K K K K K K K K K K K Q x o 9 w 9 w . 9 w $ w 9 9 ",
"9 $ . 9 9 9 w w w w 9 9 9 9 1 E K K K K K K K K K K K K K K K K K K K K K K K K K K K K K K K K Y 1 e 0 9 9 9 . 9 9 . 9 9 $ . 9 ",
"9 9 9 w 9 9 w w 9 9 . 9 9 w 8 0 1 C K K K K K K K K K K K K K K K K K K K K K K K K K K K K G 1 9 . . . 9 w 9 9 w w 9 w 9 9 $ 9 ",
"w 9 9 . . . 9 9 9 9 w . . 9 . . . w # G K K K K K K K K K K K K K K K K K K K K K K K K D : 9 . 9 9 9 w 9 9 9 . 9 9 w 9 w 9 9 w ",
". . . . . . w 9 . 9 e w 9 $ 9 w w e % w @ M J K K K K K K K K K K K K K K K K K K J N < . 9 9 9 9 9 . w . 9 w 9 w w w . $ $ 9 . ",
"w 9 w w . 9 9 . 9 9 w w 9 e . . . . .   9 w - N ~ K K K K K K K K K K K K K K ! V + . . . 9 9 9 w w . . . 9 w w 9 9 9 9 w 9 . . ",
"9 w 9 w w w 9 9 w w . 9 .       . . . w . 6 9 w = b ! K K K K K K K K K K ! b O 9 9 e 9 . . . . . . 9 . . 9 w w 9 . 9 9 9 w w 9 ",
"w 9 9 . 9 9 w 9 w . . . . w 9 w w 9 w 9 9 . 9 9 9 9 X g Q K K K K K H Q l = 9 9 w 9 w 9 9 w 9 9 w w w e w . . . $ 9 w w w w w . ",
"w w 9 9 9 $ w 9 w . 9 . 9 w 9 9 w . 9 9 w w w w w . 9 8 0 , l N B l > 0 9 9 . 9 w 9 9 . w 9 w . 9 e w . w w 9 9 9 . $ . . . . 9 ",
". . . 9 9 9 $ . 9 . w 9 w w w 9 9 9 9 . 9 9 9 . 9 $ 9 9 . . . . . . $ w 9 . 9 . 9 9 9 9 9 . 9 . . w w w 9 9 9 w . 9 . w 9 9 9 9 ",
"9 w 9 . $ w 9 9 . . . . 9 9 w w . . . w 9 9 . . w 9 9 . . 9 9 9 . 9 9 9 w 9 w 9 . 9 . 9 9 . . 9 . $ 9 9 9 w 9 9 . w w 9 9 9 9 9 ",
"$ 9 9 w $ 9 9 w . $ 9 9 9 . 9 . 9 . 9 w 9 w 9 9 9 9 9 . 9 . . . . 9 9 . 9 9 . . 9 w 9 . . w 9 w 9 . . . 9 . 9 9 9 9 w . 9 9 9 9 ",
"w . 9 9 w 9 w w w 9 . . 9 9 9 9 9 . . 9 w 9 w w 9 9 9 9 9 8 9 w 9 9 . 9 9 9 9 9 9 9 e 9 . 9 9 w w w 9 9 . . . . . 9 . 9 9 . . 9 ",
"w . 9 . 9 9 . . 9 9 9 9 9 9 . . . 9 9 9 9 9 9 w w 9 9 9 w w 9 9 w w . . 9 9 . . 9 9 . . 9 w 9 9 w 9 9 w . w 9 9 . 9 9 . . 9 . 9 ",
"9 9 w 9 w . w 9 w w 9 w . w . . . . . . w 9 9 9 w . . 9 9 9 9 w 9 9 9 . 9 . . w w 9 9 w . w 9 9 w w 9 9 . 9 w 9 . w w 9 w 9 . 9 "
};
