/* XPM */
static char *b51c437a5fc24975a790da4415ac3ef45ETON3SP7RrM4kzW[] = {
/* columns rows colors chars-per-pixel */
"64 64 242 2 ",
"   c #040304",
".  c #090607",
"X  c #090807",
"o  c #060609",
"O  c #0A0709",
"+  c #0C0A0B",
"@  c #110D0D",
"#  c #15110E",
"$  c #1A150F",
"%  c #0E0C11",
"&  c #07071D",
"*  c #120E13",
"=  c #130F1A",
"-  c #151313",
";  c #1A1514",
":  c #1C1915",
">  c #16131C",
",  c #1B1719",
"<  c #1D1A1A",
"1  c #231B16",
"2  c #221D1C",
"3  c #301F18",
"4  c #23201E",
"5  c #2B241E",
"6  c #36251C",
"7  c #080626",
"8  c #171529",
"9  c #1D1A2B",
"0  c #0B0A36",
"q  c #100E30",
"w  c #1A1837",
"e  c #221E24",
"r  c #221E34",
"t  c #221D3C",
"y  c #1E202D",
"u  c #1D2337",
"i  c #252322",
"p  c #2B2523",
"a  c #29252A",
"s  c #2D2A2A",
"d  c #332B26",
"f  c #3A2B25",
"g  c #322D2C",
"h  c #35312D",
"j  c #3B3428",
"k  c #3A332C",
"l  c #282636",
"z  c #252A3C",
"x  c #2C2C3B",
"c  c #312C35",
"v  c #342D39",
"b  c #2D303D",
"n  c #353433",
"m  c #3B3533",
"M  c #3C3935",
"N  c #37343A",
"B  c #3D3D3D",
"V  c #432E25",
"C  c #48372B",
"Z  c #573A2A",
"A  c #433B35",
"S  c #4A3D36",
"D  c #423E3C",
"F  c #533D33",
"G  c #3F403F",
"H  c #52472D",
"J  c #5D422C",
"K  c #42413E",
"L  c #4D453B",
"P  c #4B433D",
"I  c #5D4434",
"U  c #54453B",
"Y  c #594639",
"T  c #544A3C",
"R  c #61442D",
"E  c #664A2F",
"W  c #634A33",
"Q  c #644935",
"!  c #6C4E3A",
"~  c #704E3B",
"^  c #6B5139",
"/  c #72533C",
"(  c #7D593D",
")  c #0C084A",
"_  c #181546",
"`  c #181459",
"'  c #211E53",
"]  c #1E2841",
"[  c #242C42",
"{  c #292E42",
"}  c #27254A",
"|  c #352F40",
" . c #2D3245",
".. c #2E354A",
"X. c #3D3D41",
"o. c #383847",
"O. c #31364A",
"+. c #33394D",
"@. c #272658",
"#. c #2C3550",
"$. c #353C52",
"%. c #363B54",
"&. c #19146A",
"*. c #211967",
"=. c #2E2A6E",
"-. c #353275",
";. c #423E45",
":. c #413F5F",
">. c #423D63",
",. c #3F4040",
"<. c #3A4156",
"1. c #37415B",
"2. c #3B435A",
"3. c #3E4864",
"4. c #434343",
"5. c #4A4643",
"6. c #4C4946",
"7. c #454549",
"8. c #4A464A",
"9. c #494949",
"0. c #544C43",
"q. c #584B44",
"w. c #524D4A",
"e. c #5C5445",
"r. c #56514D",
"t. c #5C534C",
"y. c #464857",
"u. c #534C52",
"i. c #5A5552",
"p. c #575358",
"a. c #664E40",
"s. c #655747",
"d. c #63554A",
"f. c #655A4C",
"g. c #735A47",
"h. c #7D5B42",
"j. c #635B53",
"k. c #685E56",
"l. c #705F51",
"z. c #6C6054",
"x. c #65625D",
"c. c #6E645A",
"v. c #7A6B57",
"b. c #756759",
"n. c #424B63",
"m. c #464B6A",
"M. c #49526B",
"N. c #49526C",
"B. c #575A67",
"V. c #47447A",
"C. c #4C5675",
"Z. c #545D79",
"A. c #635B6B",
"S. c #57627E",
"D. c #696466",
"F. c #766E65",
"G. c #7B7267",
"H. c #666777",
"J. c #757275",
"K. c #81573F",
"L. c #866448",
"P. c #926B4C",
"I. c #8C6F58",
"U. c #997457",
"Y. c #A27B5B",
"T. c #867B6B",
"R. c #957B65",
"E. c #857C74",
"W. c #A77F61",
"Q. c #92826D",
"!. c #8B8279",
"~. c #988D7A",
"^. c #9E9277",
"/. c #A88465",
"(. c #B58B67",
"). c #BD936B",
"_. c #AC8F77",
"`. c #B89575",
"'. c #C59C78",
"]. c #D2A87E",
"[. c #3A3787",
"{. c #343189",
"}. c #403DA3",
"|. c #4F508B",
" X c #53549E",
".X c #5A6483",
"XX c #596587",
"oX c #626D8C",
"OX c #686A8B",
"+X c #666B96",
"@X c #647294",
"#X c #677599",
"$X c #6D7B9D",
"%X c #767490",
"&X c #6F7DA1",
"*X c #717AA6",
"=X c #716FB4",
"-X c #6F809E",
";X c #77829B",
":X c #6F80A6",
">X c #7686AA",
",X c #7B8AAC",
"<X c #7B8BB2",
"1X c #99928D",
"2X c #A59A8A",
"3X c #A59B8D",
"4X c #B69B8A",
"5X c #A79D95",
"6X c #ACA390",
"7X c #B2A998",
"8X c #888DA7",
"9X c #838BB6",
"0X c #8E99B6",
"qX c #8393BB",
"wX c #8797B9",
"eX c #B7ADA9",
"rX c #C9A884",
"tX c #D5AC82",
"yX c #D4AD88",
"uX c #DAB48C",
"iX c #CAAC93",
"pX c #D9B693",
"aX c #E1BC98",
"sX c #C6BBAD",
"dX c #E6C096",
"fX c #CEC5B4",
"gX c #889AC4",
"hX c #909FC0",
"jX c #8FA2C8",
"kX c #95A6CA",
"lX c #97AAD3",
"zX c #9EB3DD",
"xX c #A5B0D5",
"cX c #A6BBE5",
"vX c #ADC2EA",
"bX c #B3C8EE",
"nX c #D7CFC5",
"mX c #E8DDCB",
"MX c #E4DCD2",
"NX c #EDE6DC",
"BX c #F1EADA",
"VX c #F2ECE1",
/* pixels */
"B 7.7.B 4.B B 4.4.4.4.7.B B 4.4.4.4.4.7.7.4.4.7.B 4.B 4.B 4.4.4.4.w.t.j.c.b.f.t.P m 4.7.4.4.B B 4.4.7.B B B 4.7.9.4.7.B 4.4.4.4.",
"B B 4.7.7.7.4.4.4.9.4.B B 4.4.4.4.4.B 4.B 4.B 4.4.7.4.4.4.4.5.k.z.f.T S U q.d.d.q.s.s.r.K 4.4.B B B 4.B B 7.4.4.7.7.7.9.7.B 4.4.",
"4.7.B 4.7.4.4.4.4.4.B 4.4.B B 4.4.4.B 4.4.B 4.B B 4.4.4.6.k.d.U A g g h A A P 0.0.d.k.k.t.5.7.;.4.B B B 4.4.K 7.4.4.4.B 4.B 4.4.",
"B 4.7.4.4.K 7.B 4.4.4.4.B K 4.4.B 7.9.4.4.4.4.K B B B w.T d , > i 2 - ; p A A m d k P T k.f.w.B 4.B 7.7.4.B 7.4.7.7.B 4.4.9.4.4.",
"B 4.4.4.4.7.7.B B 4.4.7.B B B B B B B B B 4.7.4.4.4.7.D.h - * % % % % % < s k P 0.A 0.S 0.d.c.5.4.B 4.4.7.4.4.4.4.B B 4.7.7.4.4.",
"K B 4.4.B B 4.7.7.7.4.B B 7.9.9.9.7.4.4.4.4.B 7.7.9.9.0.I f : - - - < 2 , , 2 g m g A S U U d.i.9.G B B B B B B 4.B B 4.B 4.4.4.",
"B 4.B 7.4.7.4.M B B B 4.4.4.4.B 9.4.4.7.9.B M K B B B a.K.( J 6 I R / Q V f 6 1 2 2 k d d L 0.D 7.B 4.7.B B 7.B B B B 4.4.4.4.4.",
"4.4.7.7.7.9.4.7.B B B 4.B B B 9.7.7.7.9.7.4.4.4.4.7.4.D ! h.I C L.L.! Z R / h.R C C C U A 5.4.B B B B B B B B 4.B B 4.B 4.4.4.4.",
"B 7.B 4.4.9.B B B 4.4.7.B 7.7.B B 4.4.4.4.4.4.7.7.7.4.9.k.v.6 / h.L.! R Z I h.U.P.L.f.6.7.4.B B 4.7.7.9.B 7.7.4.7.7.9.B 4.7.7.4.",
"B 4.B B K B 4.B B 7.7.7.7.7.7.7.4.9.9.9.9.9.9.7.B 4.7.i.T.C 6 I h.L.P.P.L.h.U.P.^ P 4.4.4.7.7.4.7.7.7.4.N 4.4.B B B 4.7.7.4.B B ",
"4.4.7.4.4.4.4.7.B B B B B B B 7.B 4.7.7.4.4.B 4.4.4.r.a.I f 5 6 ! L.P.( / L.Y.I.0.4.7.7.4.4.4.B B 7.B N 4.B 4.B N B K 7.7.7.4.B ",
"4.4.B 4.4.7.7.9.9.7.B 4.7.7.9.o.b  . . .x z z z u a 5 6 Z J 3 1 V Q ( ! Z ~ g.6.7.B N 4.4.4.K K B B B B 7.4.B 9.4.4.7.7.9.u.7.7.",
"7.4.B 4.7.9.4.B B B 7.u.D.B. ...O.O.O.+.$.+. . .[ { [ x S ! ^ C 6 6 C C Y e.4.9.K 4.B 7.9.B B 4.7.9.4.B B 4.4.4.K N 9.7.4.4.7.7.",
"4.B B 7.4.7.4.9.7.7.J.0X;X2...O.+.+.$.$.$.+....... .......o.e.g.L.I.eXxXD.7.B 7.K n 4.9.7.B 7.7.4.4.7.7.4.7.9.4.4.4.4.4.4.B 4.4.",
"B B 4.B 7.B 4.9.H.8XqXwXZ.+...$.$.$.+.<.$. ...$.$.$.$.$.$.$.2.y.M.8XvXvXbXvXkX;XB.B 4.4.B N 4.7.4.4.B 4.7.4.B 4.4.B B 4.7.4.9.7.",
"B 7.B B 4.7.H.;X,X<XqXgX3...+.<.<.$.+.<.$. ...$.<.<.%.<.<.M.C.Z.jXzXvXcXbXcXcXzXlX,Xu.7.B 4.4.7.7.7.4.B B 4.4.4.4.7.4.B 4.7.4.K ",
"K B 4.7.B g q.b.D.H.wX>X1...<.y.2.{ <.%.+. .....$.2.n.n.n.3.C.&X9XkXlXcXcXcXcXlXjXqX;X4.4.B 4.7.B 4.B 4.K B 4.4.7.4.B B K B 4.4.",
"4.9.4.j.R././.(.tXuX'.!.y.y.y.<.z +.$.+.+. .{ <...n.M.n.m.XXqXwX$XhXgXzXzXzXvXlX*X@X>XH.4.7.9.4.4.9.7.B 9.4.7.K B 4.4.B B B 4.9.",
"B 9.v./.(.'.(.).tX'.'.U.D <.$.8 O.$.+.....O.{ +.<.$.M.oX$X9X9X,X<XqXhX<XcXlXzX<XC.m..XqXy.B 4.4.4.9.7.7.4.9.4.B B 4.9.7.B 4.K 4.",
"B U / Y.Y.).].tXyXL.j l $.[ 9 O.+.+. .{ ..+.O. .$.M.n.S.wX&X<XoX#X,XwX@XkXlXjX3.m.1.#XgXM.4.4.7.4.4.9.9.7.B 4.4.7.K 7.4.B B B 7.",
"j Z W ^ h.U.(.].tX! c o.z 9 ..+.+...{  .+.+.O.+.{ .X@Xm.C.,XqXC.#X$X>X.X;XlX.XN.[ #.:XgXXXp.7.9.B 7.4.9.9.7.7.K K 7.9.7.B 4.7.4.",
"A R R J J E L.U.).uXT.y.$.O.+.O. .{ { O.....O.$.+. .,X@XM.#X>Xn.#X$XoXn..XhX%...] ] XXgX#XwX7.X.B 4.4.B 7.7.4.4.7.4.7.B K 4.7.7.",
"4.P W R J J E ( /.'.uXb.o.O...{ z { O.O.{ O.+.+.$.+.$.wXXX#X<Xm.S.gXS.$.Z.C.#.%.] u %.@X&XkXp.4.7.B 4.4.4.B N B B 7.K 4.B B B B ",
"4.4.K U W E R R R h.).pXR.o.l z O.O. . . .O.+.$.$.$. .1.hX>X#X,XN.gX@X+.C.2.x o.z [  .8.E.iXk.4.4.K K B 4.7.4.B 4.7.4.4.7.7.4.7.",
"4.4.7.7.K U W R J R ^ Y.rXrXq.b +... . .O.y.<.+.+.+.+. .3.lX&X$X>X,X&X+.2.7.B 4.B 0.Y a.h.(.`.6.7.4.4.B B 4.4.4.4.K 4.4.4.7.7.4.",
"4.4.4.4.B 4.4.L Q W J R L.).uX`.u.O. .{ <.M.<.2.<.+.+.+...2.lX#X:XwX-X+.$.4.B 4.4.4.5.Y F g.yX`.0.4.X.B 4.7.B 4.4.4.4.7.4.7.4.B ",
"4.7.B B B B X.B N N U W R E Y.yXuX2Xy.+..X%.XX>XoXS.S.Z.N.%.n.0X,X,XXX$.+.4.4.7.4.7.7.4.q.I.).tX].j.B B 4.7.7.4.4.4.4.4.4.4.K 4.",
"4.4.B B B B B N z z z 8 S I R ! (.aXpX7XeX8XZ.8X.XN.1.%.%.%.n.$X>X$X$X%.+.N B B 4.4.B 4.7.j.`.yXuXrX9.B 4.4.7.B 7.4.4.4.7.4.7.4.",
"7.4.7.7.B 4.D x x [ l = 9 r k Q ! U.`.rXyXyXaXpXiX4XsX0XqX@XXXlXlXlXgXXX2.y.7.4.B 7.4.4.4.5.Q.yXdXuXr.4.4.4.B B B 4.4.4.7.4.4.4.",
"4.4.B N B 4.c z l u 8 8  .$.C.oXA.F C F a.! U.W.`.U.'.5X&X#X@XZ.m.XXqXcXXXy.4.4.4.7.7.4.7.4.l.R.`.pX/.Q.c.6.4.4.7.4.7.4.4.4.4.4.",
"4.4.4.4.4.7.D l y b B.H.B.u.N 7.a   O 2 1 V I.L.(./.U.4XOXoX$X<XlXgXXX#.OX4.7.4.4.9.4.9.t.iXV Z `.aX'.`./.s.B 7.4.7.4.4.4.4.4.4.",
"4.7.B 7.7.9.4.M 6.r.i.i.w.w.i.j.5., i n p C Y U Q I Z 6 p 9.D.p.w.p.H.H.8.B h s g s s M q.D.D.C h._./.R.a.4.B B 7.4.4.7.B 4.7.9.",
"4.4.4.7.7.B < ; 2 g B 4.5.4.4.w.i.9.- + < 2 i i p s n K h - B h n n B B B D M h p 2 - . i 4.- ; 1 ; 4 n n i < i s h N B B 4.4.4.",
"7.K 4.K 5.< X .   O @ < i g n n B D n @ O s - - i i O + , - ; B m , - - + + + @ .     < h <     . + - - - ; < , - i M B n D 7.4.",
"4.4.4.B g X X . X X O + - @ i g ; 2 * n + * n i + + i - . . O @ d n s s s B d i.s B x.9.s     O - - o         . + + + , n D 5.4.",
"4.4.4.4.M @ . X X X O + + + + < i < @ < N ;   . , O   . o       . + - 2 2 2 : J.p < @ .     . .     . . . . .     . + + - ; 2 h ",
"4.4.4.4.m 4 + X X O O O O + @ @ @ p 2 i D D s .                         O . + .       . O + O                 . o O + % + * - n ",
"4.4.7.B K ; @ X O O O O O - 2 g M 4.@ @ + + + : 5 j < + @ X         . . . O 9.+ o . + %                     . o O O O + # ; n B ",
"9.7.B 4.4.d # + O O O O O s - @ - A j j C L k 5 : # $ # # ; @ + + @ - ; 2 i B !.j.c.M .             . o O O O + + + - i n B 7.7.",
"7.4.7.4.9.K ; @ O O O O X < D - @ d A 5 1 p 2 $ : h ; s 5.9.4.4.B B 4.B B h w.J.H.>         . . o o o o . o o O - s B 4.7.4.7.7.",
"9.9.7.7.B D k # @ O O + O - s D - 4 4.6.2 # 1 @ 2 5.K 7.8.4.4.4.7.7.4.i , + w ) }.@.                  . o + < n B B 7.9.B K B B ",
"9.7.4.9.7.7.7.p ; + O O O < p 2 n M 4.B B 0.i.w w v B 7.8.7.9.4.4.M +     . r l H.8X+     . . . . . X + i B B 7.7.4.7.9.4.4.7.4.",
"B B B 4.B 4.K 4.K 2 O O O - D 4 - h 8.D 9.B n w w r B K 6.K w.6.A 6 $   < N w c i.3XT . . . . .   # s B 4.4.4.4.4.7.B B 4.B B B ",
"4.7.7.B B 4.B 4.K h + + X O p w.s - B B 4.4.n a 8 r D A M m C V F S f.C S V c w l k.H.o   . + 2 M G 7.4.4.B 4.4.4.4.7.4.9.4.7.B ",
"7.4.4.4.4.B 4.4.B B - + X X + s 6.d m D b 9 s N 9 r p.u.w.m k 5.A.D.w.;.m H a 9 w } +Xv 2 g G ,.B 4.4.7.4.4.4.B 4.4.4.4.4.7.7.4.",
"4.4.4.4.4.4.9.4.4.7.D + X X X , m A g v 9 m ;.| 8 8 x B n D 6.l | d.w.{ l N 8.N @.[.V.OXy.;.7.7.K B B B B 4.9.4.7.4.7.9.7.4.4.B ",
"9.4.9.4.4.4.4.4.B B 4.2 O X O * B n < G.j.6.r.l a 4.4.7.7.4.8.o.k.p.p.l N B 4.=.}.+Xp.D.%.} %.,.K 4.4.7.7.7.B 4.B B M B B B B 4.",
"4.7.4.7.4.B B B 4.7.4.P + X O + i D D T.^.c.N 8.t.4.7.7.7.4.;.u.o.o.N D 4.D r =.=X^.^.^.Q.G.E.1X1XG.r.4.4.B 4.K 4.4.B 7.9.B 4.B ",
"B 7.7.4.B 4.4.9.7.9.K 4.t.k # - : P T.Q.~.7XE.~.T.s 9 a 4.9 o.t r N 7.7.4.B w *.9XfXt.a 9 e p 5 P T.2X6XF.4.X.4.B B 4.B 4.4.4.4.",
"4.B n N 4.B 4.4.9.B B K P c.f.f.z.b.G.T.G.!.F.P 0.e = g s 7 q 9 4.B 7.4.7.4.| _ [.m.- = l { z x s p P ~.7X7X6.B 7.B B 9.7.4.4.B ",
"9.7.B 9.9.7.4.B 4.7.4.K P z.d.q.z.c.~.mXfX!.!.S M     > & 0 w < c B B 4.B 4.D l ' 0 8 w _ @.H.!._ %.s p G.3X3Xw.B B ,.7.9.4.B 4.",
"7.B B B B B 4.B 7.4.7.7.c.c.j.3X7X7X2XsXNX5Xj.+     O 8 _ ' _ N 7.7.X.B 7.4.7.A w 7 0 0 _ =.=X3X:.*. Xc 2 F.2XeXt.4.4.7.4.4.K 7.",
"K 7.4.N 9.9.9.9.4.4.7.7.x.T.E.5XeXsXnXMXMXVX1XX : . < B 8.B N 7.B B B B N B B 5.s w 0 _ %X-.=X5X%X*.{.=.a d T.2X6X5.K B 4.4.4.B ",
"9.9.4.B 7.7.4.4.B B 4.4.c.c.E.5XsXnXnXMXNXNXBXP ; + n B G 9.4.4.B 4.4.7.4.4.B 6.* r 7 7 } :.|.=X) &.[.xXy.5 T T.7Xj.B 7.7.4.4.7.",
"M B B 4.B B N 4.9.7.9.9.j.f.c.c.G.T.3XfXfXmXmX6Xj B 7.B B B 4.4.B 4.7.4.4.4.4.B @ * q q w % % o.0 0 -.{.-.a h c.Q.E.B B 7.4.4.7.",
"B B h B 4.7.4.B B B 4.4.4.e.f.f.l.v.I.R.Q.^.6Xk.4.4.7.9.G 7.4.4.K 4.K 7.4.7.4.5.2 + q _ } < + 9 w ' V.-.>.c p 0.v.T.N B B B N B ",
"7.7.B 7.7.4.B B K B B B 4.B 4.6.6.0.0.6.K K D 7.9.4.4.K B 4.7.4.B B 4.B B 4.4.B n @ 7 ) -.+Xt.j.w @.+X1X6X5.5 A e.b.4.7.7.7.4.B ",
"4.B 4.7.4.7.B 7.4.4.9.7.7.9.B 7.9.B B 7.7.7.K 4.7.4.B 4.B 4.4.B B 4.7.4.4.B B 4.5.4 o q ) [.8X} _ ` |.7X7Xn p L e.k.7.4.4.4.7.4.",
"B 7.7.4.4.B 4.K 4.4.4.7.4.B 4.4.4.B 4.4.7.7.4.B 4.B 4.B B B 4.B B B B B B 4.B 7.7.B + o 7 0 ) &.$X' V.5XF.e p T s.e.4.B 4.7.B 4.",
"B 4.B 4.B 7.7.4.4.4.4.4.B B 4.4.4.7.7.4.4.B B B B 4.4.7.7.B 4.B B B 4.B B 4.4.4.B 7.D @ O & 0 ) ` ` |.m.8 2 j s.f.P 4.B K K B B ",
"4.B B B 7.7.7.B 4.9.7.4.7.7.B 4.4.4.B 4.4.7.4.K 7.4.B 4.B B B B B B 7.4.4.K 4.B 4.4.B s O O + & q w 8 > ; p q.f.T B B 7.7.4.4.4.",
"B B 4.B B 4.K 4.7.4.4.7.9.9.4.4.4.B B 4.4.B 7.4.4.4.4.4.K B 7.4.7.4.B K K B 4.4.4.B 4.4.-   . O + @ # @ 1 T q.5.B B B 4.7.4.4.4.",
"B 4.4.4.B 4.4.7.B 4.4.4.7.9.7.4.9.4.7.4.4.K 4.9.7.7.7.7.B 4.K 4.7.4.4.7.B B B 4.4.4.9.4.B 4 # + . X @ d 0.K D B 4.4.,.4.7.7.B 7.",
"B B B M 4.B 4.4.7.K K 7.4.4.7.4.7.4.B B B B 4.4.4.9.4.4.B 4.K 7.7.4.4.7.7.G 4.B B 4.7.B B B B g p < : 2 N 4.7.9.4.B B 4.7.7.4.4."
};
