/* XPM */
static char *_1fb7e00883948afc236d96228a1363bUospV4TifjPPSQ9z[] = {
/* columns rows colors chars-per-pixel */
"64 64 25 1 ",
"  c #323232",
". c #353535",
"X c gray21",
"o c #373737",
"O c gray22",
"+ c #393939",
"@ c #3A3A3A",
"# c gray23",
"$ c #3C3C3C",
"% c gray24",
"& c #3E3E3E",
"* c #3F3F3F",
"= c gray25",
"- c #414141",
"; c gray26",
": c #434343",
"> c #444444",
", c gray27",
"< c #464646",
"1 c gray28",
"2 c #484848",
"3 c #494949",
"4 c gray29",
"5 c #4B4B4B",
"6 c gray31",
/* pixels */
",;;,;*;;;;;;;,,;;;*;;;;;;,,,;;;;;,;**;;;;*;,,;;,;,;;;;;;;;;;;;;;",
",,,,,;;;;;,,,,;*;;;;;;;;****;,;*;;;;;,;;**;,,;;;;;,;;;;*;;;;;;;*",
";,,,;;;;;;;,,,,;;;;;;;;;;;;;*;;;*;;;,,;;**;;;;;;*;,;;;**;;,;;,;*",
"*,,;;,,;,;*;,;;,;;;;;;;*;;;;*#*;;;,,;;;;;;,;;;;;*;,,;**;;,,;;,,*",
"*,,;*,,;,;;;;;;,*;;;;;;;***;,,;*,,,,;;;,;,;**;,;;;,,;*;,;,,;;;;*",
";,,;;;;;;;;,,,,;*;;;;;;;,;;;,,,,,,,,;;,2*;;**;,;;;,,;;;,;,,;;;;;",
";;,;;;;***;;,,,;;;,;;*;;,,,*##*,,;;,,;;,*****;;,;;,,;;;,,,,;;;;;",
"**;;;;**;,;;;;;*;,,;***;2,,,,;*#;**;,;********;,,;,,;;;,;;;;;;;;",
";**;,,;*,,,,,;;;*;*,*,;,#;,;;,,;,*#;;,*;,;,,,2,,;;;,,,;;;*;;;;;,",
";;****;,;;,,,;,,,,**o;;2;,2,,,;;,;;;;,;,,;;**;*;;;;;;;;;,;;;;;,,",
";;;,;;,,***;**;,**;,,;**;,,,;;;;;;,;;;;;;**#;,;,,,;;;;,,*******;",
";;;,,,,;,,;;;;;,;;,;,;;;;;;;;;;,;,,,*,*;**;;,2,2,,,;;;;;,;;,,,,2",
",;***;;;2,;;;;;,2,,*,;22,,,,;;;,;,;,#2*,;;,,;,;,;;;;;;;****;;;;;",
";,,;**;,,;*;;;;;;*;;2;;;,,,;;;;;;,*,#2*,,;,;;;;,;;;,,;;*,;,,,;;;",
";,2,,;;,,,;,,,,,;***;;;;*;,;*;;;;*;;*;*,,;,;;,;,;;;;,;;;,,,,,;;;",
",;***;;;,,,,,;*;,;;,,;;;*,,;*;*#;*,;,*;,;;;;;,;;*****;;;,;;;;;;;",
",;;;;,,,;;;;;*;;;;;;;;;,;;*,**,*;;;**;;;*;;;;;;,,;;,,;*;;,,2;,;,",
";;;;;;;,,;*;,,;*;;;;;;,,,2,,,;,;;,,;;;,;,,;;;;;,;##*;;;,;,;,*;;;",
";;;;;;;;,,,;;;,,;,,,,,,2;,;;;***;;,;;;;;,,;*;**;,;,2,**;;;;;*;;;",
",,,;;;;;;;,,;;,,;,,,,,,,;,;;,;;,*;;;;;;,;,;;,;****;;,;;;;;;;;;;,",
",,,,,,;;,;**;,;;*;;,,;;*;,;*;,;,;;;;;;;,;,,,,;;;,;*#;2,*,;;;,,,,",
";;;;,,;;,;;;;;;;**;;;;**;*;**;*;,;;;;*;;;,;;;;*;,22;;,,;;;;;,;,,",
";;;;;;;;;;,;**;,;;;,,;;;;*,;;;**;;**;;;;*;**;;*;o*,,;*;,;;;*,;,;",
";;;,;;;*;;*;;,,;;;;;;;;;;#,,*;**;**;,,,;;;;;,,;;2**,2,;;;;;*,;;*",
"#;,;*;;;,,;;,,,;;;;;*****;;,;;,,,,;;;;;;,;;;;,,,;;;,,,;*,;;;;;;;",
",;;,,;;2;;*;;;;*;;;;;;,,;;,,,;;;;;;;;;;;;*;;;;;*;;,;,,;*;;;;;;;;",
";;;;*;;*,;;;,,,,*******;***;,,,,,,;,,,,,;*;,;;;*****;;;;;;;;;;;,",
",2,;;,,;;;***;;;;;;*;;;;;;;;;;*******;**;;;;;;;;;;,;,,,,**;;;;;,",
";*#*;*;,;*******,;*;;,,,,;;;;;**,;;;,,;;,;;;;;;;*;*******;;;;;,,",
"2,;,,,,,;;;,,,;;;;**;;;*;;;;,,,,;;;;;;;;,;;,;;;*;,,,,,,,;;;;;;;,",
";,,**;;*;;;;,;;;,,,,,;;*,,,,,;;;,,,,,,,,,;,,,,,;*;;;;,,;,;;;,,;;",
";**;;;;,,,;;;,,,*;,,,;;;;;;,,,,,*;;;;;;,,;;;;;,;;,,,,;;*;;*;;,,;",
";,;,;,,,;;;;;;;;,;,;22#*,,,;;;,2;#*,;;;;*;;;;;;;;,;,;,;;;*;;,;;;",
"*;*;;,,,;;;;;;;;*;;;22*;,,;;**;,;;;;;,,;;;;***;;,,;,*;**;**;;,*;",
";;*;*,;,;;;;;;;*;;;;,,*;;;;;;;;;*;*#*;;*;;;;;,,2o##;*;*;;;;,*,*,",
";,;,;,;;;;;;;;;*,,,;;;*;;;;;;,;;;,;*;;;,;;;;**#o*;;2;;*;*;;;*;*,",
"*;;,;,;,,;;;;;;;;;;;*;,,,;**;;,,;;;;,;*,#**;,,,,;,,2;;;;2;;*,,,;",
";;;,;,;;;;;;;;;;,;;;**,;;;;;;;;;****;*#;;;*****#*;*;*;;,,*,*,,,,",
";,;,;,;;;;;;,,,,,,;,;*,**;;,,,;*;;;;;;,,,,;;;,,,22,,*;;;#*,****;",
";,;,;,,,;;;,,,,,,;;2;;,#,;;;;;,,;*;;*;2,,,,,,,,;;,;,;,;;,,,,;,*;",
",;;;;;,,,;;;;;;;,,;;;,,;*;,;,,,;,;;**;;,,;*;,,;*;,,,;;;;,;*;,,,*",
";**;;;;,;;;,,;;;,,,;;;*#;;;;;,,,;;,;;,;;,;;**;,2;;;,,,;;,;;;;;;,",
";;*;,,,,;;;,,;;*;**;,;;;,;;;;;,,*;,;,,;;*;,,,;**2;;,,**;;;;;;;,,",
";;;;;,,,,,;;;**;,;;;;;;;;;;;;;;;;*;;;,;;,;;;;;;***;,;*;2;;;;,,;;",
";;;;;;;;,,;;;*;,2;;;;;;,;;;,,;;;,*;;,;*,;;;;,,,;*;,,;*;,2,,;;;**",
";,,;;;;,;;;;;;;;;;;;,;;,;,,;;,;;2;;,,,*,#;,,;;;*;;,;;;;#;;;*##*,",
",,,;;,,,;**;;;;;,2,;;***;,,;;,,;,;,;;,;;;,;*#*;,***;,,,,**;***;,",
",,;;;,,;,,;;,,,,;,;**;;;*,,;;,,****o#;;*;;;;;,,;2,;;*#*,,;;,22,;",
";**;;**,,;##;;#o*;*,2;,**,;*,,;,;;;,,2,******2;*;;;;;,,;;;;,,,;;",
",;;;;**;*;;;,;;;*##**;;,;2,;2,*;,,,,;;;*;;;;*,***;,,,,;*;;;;;,,;",
";**;;;,2;;;,2,,26,2;,2;2,2,;,;*;*#*;;;,,;;;;*,;;;;;;;;;*,,;;;;;;",
",;;;;;;,,,;*;;;;;***;,;,22;;;;;,,;;,,;;*;;;;*,;;;;;;*;,;,,,;;;;;",
";;*;;;;;;,;#*;;*;;;,,;,;2,;;;,,,*o#;;;;;;;;;*,**;;,,;,;*,;;;;;;;",
"****;;;,#,2;;,;;,,;,,*;*,;;;;;;;;;;*#o##;;*;;,;;,;;;;;,;,;;;;;**",
",,;;;;**;,,,,;*;***;;;,2;*;;;;;*;;,,*;,,;**;*,*;,;**#;,,;;;;;;**",
",,,,,,,,2;**;# o#o***;*,,;;;;,,;;;,,,,,*,;;;#*#******;,,**;,,,,;",
",,,*;;,;;*##;,,,,,,;**;;,;*;,,;;***;;;;;;;;;,,;*;,22,,*#,;,2,,,;",
",,,;,,,,,;;;;;;;;;;;;,,,,;;;;;**;;;;;;*;,;;;;;;;,,,;;,,,******;*",
"*****;**;;;;;;,,;;;;,,;;,;;;;;*****;;;;;;;;;;;;*,,2,;;;;;;;;;;,,",
";,;,;,,,**;;;;,,;**;;;**;;;;*;;****;;;;;;;;;**;;#*;,,,;;*;;;,,;,",
";;*,*,;;;;*;;;;;;**;,,,,*;;**;;*;;;;;;**;;;;;;;,*****;;;*;;;;;*;",
",,;,,,,,;;*;;;;*;**;,,,,,;;;;;;;;;;;;;;*;;;;;;;,,,;****#*;;*;**;",
";*;*;***;;;;;,;;;**;;;;,,;;,,;;,;;;;;;;;;;;;;;;;*;;;;;;;#;**;*#;",
";*,;,;;;;;;;;;;****;;;;,,**;,;*;,,;;;*;;,;;;;,;;,,,,;;;;*,,;,;*;"
};
